<?xml version="1.0" encoding="UTF-8"?>
<!-- Generator: Adobe Illustrator 14.0.0, SVG Export Plug-In . SVG Version: 6.00 Build 43363)  -->
<!DOCTYPE svg PUBLIC "-//W3C//DTD SVG 1.1//EN" "http://www.w3.org/Graphics/SVG/1.1/DTD/svg11.dtd">
<svg version="1.1" xmlns="http://www.w3.org/2000/svg" xmlns:xlink="http://www.w3.org/1999/xlink" x="0px" y="0px" width="520.118px" height="211.048px" viewBox="0 0 520.118 211.048" enable-background="new 0 0 520.118 211.048" xml:space="preserve">
<g id="Layer_1">
</g>
<g id="Layer_2">
	<path fill="#DA0C1D" d="M384.125,20.023v86.025h-28.666V20.048h-86.126l-46.192,86.001H86.001v0.073   c-10.623-0.513-19.084-9.263-19.084-20.013c0-11.08,8.982-20.062,20.062-20.062H233.98V20.048H86.979v-0.001   c-0.006,0-0.013,0.001-0.019,0.001h-0.958v0.024C50.025,20.6,20.917,50.01,20.917,86.109c0,36.427,29.635,66.062,66.062,66.062   v-0.123h111.455L177.5,191.023h58.146l21.309-38.975h51.047v38.999h47.458v-38.999h28.666v38.975h46v-38.975h56.941v-46h-56.941   V66.023h70.023l-0.001-46H384.125z M282.104,106.049l25.897-47.369v47.369H282.104z"/>
</g>
</svg>
