<?xml version="1.0" encoding="utf-8"?>
<!-- Generator: Adobe Illustrator 15.0.0, SVG Export Plug-In . SVG Version: 6.00 Build 0)  -->
<!DOCTYPE svg PUBLIC "-//W3C//DTD SVG 1.1//EN" "http://www.w3.org/Graphics/SVG/1.1/DTD/svg11.dtd">
<svg version="1.1"
	 id="svg2" xmlns:dc="http://purl.org/dc/elements/1.1/" xmlns:rdf="http://www.w3.org/1999/02/22-rdf-syntax-ns#" xmlns:cc="http://creativecommons.org/ns#" xmlns:svg="http://www.w3.org/2000/svg"
	 xmlns="http://www.w3.org/2000/svg" xmlns:xlink="http://www.w3.org/1999/xlink" x="0px" y="0px" width="956.106px"
	 height="483.504px" viewBox="0 0 956.106 483.504" enable-background="new 0 0 956.106 483.504" xml:space="preserve">
<g id="layer1" transform="translate(157.27344,-228.79102)">
	<path id="path4151" fill="#284199" d="M84.564,228.791c-133.563,0-241.837,108.235-241.838,241.751
		c0,133.517,108.273,241.753,241.837,241.753h0.001c120.451-0.13,222.444-88.85,239.219-208.086h-63.028
		c-16.156,84.539-90.093,145.696-176.19,145.739c-99.118,0-179.469-80.322-179.469-179.405v-0.001
		c0-99.082,80.352-179.404,179.469-179.404c82.452,0.087,154.237,56.323,174.031,136.336h63.732
		C301.508,312.517,201.431,228.89,84.564,228.791z"/>
	<path id="path4151-9" fill="#FFFFFF" d="M84.233,289.912c-99.795,0.001-180.693,80.871-180.694,180.63
		c0,99.76,80.899,180.631,180.693,180.631h0.001c86.684-0.157,161.042-61.828,177.198-146.964h-47.627
		c-15.321,59.028-68.568,100.278-129.571,100.38c-74.059,0-134.094-60.015-134.094-134.047
		c0.001-74.031,60.036-134.045,134.094-134.045c57.338,0.134,108.247,36.697,126.67,90.977h48.442
		C239.541,346.836,167.294,290.083,84.233,289.912z"/>
	<path id="path4151-6-6" fill="#EC2427" d="M84.564,335.122c-74.817,0-135.469,60.63-135.469,135.42
		c-0.001,74.791,60.65,135.422,135.468,135.422h0.001c61.806-0.05,115.741-41.91,131.106-101.755h-66.205
		c-12.568,24.238-37.591,39.464-64.901,39.491c-40.418,0-73.184-32.754-73.183-73.158l0,0c0-40.403,32.765-73.156,73.183-73.156
		c23.357,0.036,45.294,11.214,59.045,30.088h69.257C194.367,372.348,142.729,335.179,84.564,335.122z"/>
	<rect id="rect4174" x="-245.417" y="188.213" fill="#6BFF43" fill-opacity="0" width="1193.704" height="542.531"/>
</g>
<g>
	<path fill="#284199" d="M258.224,224.095v9.802h-0.813c-0.612-2.558-1.751-4.519-3.42-5.881c-1.668-1.362-3.56-2.043-5.672-2.043
		c-1.766,0-3.386,0.508-4.859,1.522s-2.551,2.343-3.232,3.983c-0.876,2.1-1.314,4.436-1.314,7.007c0,2.531,0.32,4.835,0.959,6.913
		c0.639,2.078,1.64,3.649,3.003,4.713c1.362,1.063,3.128,1.596,5.297,1.596c1.779,0,3.41-0.39,4.89-1.168
		c1.481-0.778,3.041-2.12,4.682-4.025v2.44c-1.585,1.654-3.236,2.854-4.953,3.598c-1.717,0.743-3.723,1.115-6.017,1.115
		c-3.017,0-5.697-0.604-8.04-1.814c-2.343-1.209-4.15-2.947-5.422-5.214c-1.272-2.266-1.908-4.677-1.908-7.236
		c0-2.697,0.705-5.255,2.117-7.674c1.411-2.419,3.316-4.296,5.714-5.631c2.398-1.334,4.946-2.002,7.644-2.002
		c1.988,0,4.087,0.431,6.298,1.293c1.279,0.5,2.092,0.75,2.44,0.75c0.445,0,0.831-0.163,1.158-0.49
		c0.326-0.327,0.539-0.845,0.636-1.554H258.224z"/>
	<path fill="#284199" d="M277.056,224.345c4.504-0.167,8.165,1.147,10.98,3.942c2.815,2.794,4.223,6.291,4.223,10.49
		c0,3.587-1.05,6.742-3.149,9.468c-2.781,3.614-6.708,5.422-11.783,5.422c-5.088,0-9.023-1.724-11.804-5.172
		c-2.197-2.725-3.295-5.957-3.295-9.697c0-4.199,1.428-7.699,4.286-10.5C269.371,225.496,272.885,224.178,277.056,224.345z
		 M277.306,225.68c-2.586,0-4.553,1.321-5.902,3.962c-1.098,2.169-1.647,5.283-1.647,9.343c0,4.824,0.848,8.39,2.544,10.698
		c1.182,1.613,2.836,2.419,4.963,2.419c1.432,0,2.627-0.347,3.587-1.042c1.223-0.89,2.176-2.312,2.857-4.266
		c0.681-1.953,1.022-4.501,1.022-7.642c0-3.74-0.348-6.538-1.042-8.394c-0.695-1.856-1.582-3.167-2.659-3.931
		C279.951,226.062,278.71,225.68,277.306,225.68z"/>
	<path fill="#284199" d="M304.417,224.741l13.952,17.538v-12.158c0-1.696-0.243-2.843-0.729-3.441
		c-0.667-0.806-1.787-1.196-3.358-1.168v-0.771h9.343v0.771c-1.196,0.153-1.999,0.352-2.409,0.594
		c-0.41,0.244-0.73,0.64-0.959,1.189c-0.229,0.549-0.344,1.491-0.344,2.826v23.544h-0.709l-19.124-23.544v17.976
		c0,1.627,0.372,2.726,1.116,3.295c0.744,0.57,1.596,0.855,2.555,0.855h0.667v0.771h-10.031v-0.771
		c1.557-0.014,2.641-0.334,3.253-0.959c0.612-0.626,0.918-1.689,0.918-3.191v-19.957l-0.605-0.751
		c-0.598-0.75-1.126-1.244-1.585-1.48s-1.119-0.368-1.981-0.396v-0.771H304.417z M314.678,216.441h1.105
		c0.014,0.278,0.021,0.515,0.021,0.709c0,1.53-0.431,2.76-1.293,3.691c-0.862,0.932-1.905,1.397-3.128,1.397
		c-0.904,0-2.04-0.327-3.41-0.98c-1.37-0.653-2.283-0.98-2.742-0.98c-0.417,0-0.765,0.139-1.043,0.417
		c-0.278,0.278-0.473,0.779-0.583,1.501h-1.21c-0.056-1.807,0.358-3.225,1.241-4.254c0.882-1.028,1.971-1.543,3.264-1.543
		c0.417,0,0.764,0.042,1.042,0.125c0.389,0.111,1.057,0.39,2.002,0.834c1.432,0.654,2.454,0.98,3.066,0.98
		c0.306,0,0.598-0.125,0.876-0.375C314.163,217.714,314.427,217.206,314.678,216.441z"/>
	<path fill="#284199" d="M344.687,224.095l0.229,9.426h-0.855c-0.403-2.363-1.394-4.265-2.972-5.704
		c-1.578-1.439-3.285-2.159-5.12-2.159c-1.418,0-2.541,0.379-3.368,1.137c-0.828,0.758-1.241,1.63-1.241,2.617
		c0,0.625,0.146,1.182,0.438,1.668c0.403,0.654,1.05,1.3,1.939,1.939c0.653,0.458,2.162,1.272,4.526,2.44
		c3.309,1.626,5.54,3.163,6.694,4.609c1.14,1.446,1.71,3.1,1.71,4.963c0,2.363-0.921,4.397-2.763,6.1
		c-1.843,1.703-4.182,2.555-7.018,2.555c-0.89,0-1.731-0.09-2.523-0.271s-1.787-0.521-2.982-1.022
		c-0.667-0.277-1.217-0.417-1.647-0.417c-0.362,0-0.744,0.14-1.147,0.417c-0.403,0.278-0.73,0.702-0.98,1.272h-0.772v-10.678h0.772
		c0.611,3.003,1.79,5.294,3.535,6.872c1.745,1.578,3.625,2.367,5.641,2.367c1.557,0,2.798-0.425,3.723-1.272
		c0.924-0.848,1.387-1.835,1.387-2.962c0-0.667-0.177-1.313-0.532-1.939c-0.354-0.625-0.894-1.22-1.616-1.782
		c-0.723-0.563-2.002-1.297-3.837-2.2c-2.572-1.266-4.421-2.343-5.547-3.233c-1.126-0.89-1.992-1.884-2.596-2.982
		c-0.605-1.098-0.907-2.308-0.907-3.628c0-2.252,0.827-4.171,2.482-5.756c1.654-1.585,3.74-2.377,6.256-2.377
		c0.917,0,1.807,0.111,2.669,0.333c0.653,0.167,1.449,0.477,2.388,0.928s1.595,0.678,1.971,0.678c0.361,0,0.646-0.111,0.855-0.333
		c0.208-0.223,0.403-0.758,0.584-1.606H344.687z"/>
	<path fill="#284199" d="M360.015,226.368v11.512h0.563c1.793,0,3.093-0.563,3.9-1.689c0.807-1.126,1.321-2.788,1.543-4.984h0.793
		v14.807h-0.793c-0.166-1.613-0.518-2.934-1.053-3.962c-0.535-1.028-1.157-1.72-1.866-2.075s-1.738-0.532-3.087-0.532v7.965
		c0,1.558,0.066,2.51,0.198,2.857c0.132,0.348,0.379,0.633,0.74,0.855s0.945,0.333,1.752,0.333h1.689
		c2.641,0,4.758-0.611,6.35-1.835c1.592-1.223,2.735-3.086,3.431-5.589h0.771l-1.271,8.988h-24.442v-0.771h0.938
		c0.82,0,1.481-0.146,1.981-0.438c0.361-0.194,0.639-0.527,0.834-1.001c0.153-0.333,0.229-1.209,0.229-2.627V229.58
		c0-1.279-0.035-2.065-0.104-2.357c-0.139-0.486-0.396-0.862-0.771-1.126c-0.528-0.389-1.251-0.584-2.169-0.584h-0.938v-0.771h23.67
		v8.363h-0.793c-0.403-2.044-0.97-3.511-1.699-4.4c-0.73-0.89-1.763-1.543-3.098-1.96c-0.778-0.25-2.238-0.375-4.379-0.375H360.015z
		"/>
	<path fill="#284199" d="M392.507,252.248v0.771h-14.785v-0.771h0.938c0.819,0,1.48-0.146,1.98-0.438
		c0.361-0.194,0.64-0.527,0.834-1.001c0.153-0.333,0.229-1.209,0.229-2.627V229.58c0-1.446-0.076-2.35-0.229-2.711
		c-0.152-0.361-0.462-0.678-0.928-0.949s-1.095-0.407-1.887-0.407h-0.938v-0.771h14.785v0.771h-0.938c-0.82,0-1.48,0.146-1.98,0.438
		c-0.362,0.195-0.646,0.529-0.855,1.001c-0.153,0.334-0.229,1.209-0.229,2.628v18.602c0,1.445,0.08,2.35,0.24,2.711
		c0.159,0.361,0.473,0.678,0.938,0.948c0.466,0.271,1.095,0.407,1.887,0.407H392.507z"/>
	<path fill="#284199" d="M420.452,243.093l-1.063,9.927h-25.109v-0.771h0.938c0.82,0,1.481-0.146,1.981-0.438
		c0.361-0.194,0.64-0.527,0.834-1.001c0.153-0.333,0.229-1.209,0.229-2.627V229.58c0-1.446-0.076-2.35-0.229-2.711
		c-0.152-0.361-0.462-0.678-0.928-0.949s-1.095-0.407-1.888-0.407h-0.938v-0.771h15.078v0.771h-1.23c-0.82,0-1.48,0.146-1.98,0.438
		c-0.362,0.195-0.646,0.529-0.855,1.001c-0.153,0.334-0.229,1.209-0.229,2.628v18.018c0,1.446,0.084,2.366,0.25,2.763
		c0.167,0.396,0.494,0.692,0.98,0.887c0.348,0.125,1.188,0.188,2.523,0.188h2.356c1.502,0,2.753-0.264,3.754-0.792
		s1.866-1.363,2.597-2.503c0.729-1.14,1.421-2.822,2.075-5.047H420.452z"/>
	<path fill="#284199" d="M445.708,244.97h-9.99l-1.188,2.753c-0.39,0.917-0.584,1.676-0.584,2.273c0,0.792,0.32,1.376,0.96,1.751
		c0.375,0.223,1.3,0.39,2.773,0.501v0.771h-9.405v-0.771c1.015-0.153,1.849-0.573,2.502-1.262s1.46-2.109,2.419-4.265l10.115-22.564
		h0.396l10.198,23.189c0.973,2.197,1.772,3.58,2.398,4.15c0.473,0.432,1.14,0.682,2.002,0.751v0.771h-13.681v-0.771h0.563
		c1.098,0,1.869-0.153,2.314-0.459c0.306-0.223,0.459-0.542,0.459-0.959c0-0.251-0.042-0.508-0.125-0.771
		c-0.028-0.126-0.236-0.646-0.626-1.564L445.708,244.97z M444.998,243.427l-4.212-9.739l-4.338,9.739H444.998z"/>
	<path fill="#284199" d="M469.419,224.741l13.952,17.538v-12.158c0-1.696-0.244-2.843-0.73-3.441
		c-0.667-0.806-1.786-1.196-3.357-1.168v-0.771h9.343v0.771c-1.195,0.153-1.999,0.352-2.408,0.594c-0.41,0.244-0.73,0.64-0.96,1.189
		s-0.344,1.491-0.344,2.826v23.544h-0.709l-19.124-23.544v17.976c0,1.627,0.372,2.726,1.116,3.295
		c0.743,0.57,1.595,0.855,2.555,0.855h0.667v0.771h-10.031v-0.771c1.558-0.014,2.642-0.334,3.254-0.959
		c0.611-0.626,0.917-1.689,0.917-3.191v-19.957l-0.604-0.751c-0.598-0.75-1.126-1.244-1.585-1.48s-1.119-0.368-1.981-0.396v-0.771
		H469.419z M479.679,216.441h1.105c0.014,0.278,0.021,0.515,0.021,0.709c0,1.53-0.431,2.76-1.293,3.691
		c-0.862,0.932-1.905,1.397-3.128,1.397c-0.904,0-2.041-0.327-3.41-0.98c-1.369-0.653-2.283-0.98-2.742-0.98
		c-0.417,0-0.765,0.139-1.043,0.417c-0.278,0.278-0.473,0.779-0.584,1.501h-1.209c-0.056-1.807,0.357-3.225,1.24-4.254
		c0.883-1.028,1.971-1.543,3.264-1.543c0.417,0,0.765,0.042,1.043,0.125c0.39,0.111,1.057,0.39,2.002,0.834
		c1.432,0.654,2.454,0.98,3.065,0.98c0.306,0,0.598-0.125,0.876-0.375C479.165,217.714,479.429,217.206,479.679,216.441z"/>
	<path fill="#284199" d="M516.571,224.741v7.654h-0.751c-0.445-1.766-0.938-3.035-1.48-3.806s-1.286-1.387-2.231-1.846
		c-0.528-0.25-1.453-0.375-2.773-0.375h-2.106v21.814c0,1.445,0.079,2.35,0.239,2.711s0.473,0.678,0.938,0.948
		c0.466,0.271,1.102,0.407,1.908,0.407h0.938v0.771h-14.807v-0.771h0.938c0.82,0,1.48-0.146,1.981-0.438
		c0.361-0.194,0.646-0.527,0.854-1.001c0.153-0.333,0.229-1.209,0.229-2.627v-21.814h-2.043c-1.905,0-3.289,0.403-4.15,1.209
		c-1.21,1.126-1.975,2.732-2.294,4.818h-0.793v-7.654H516.571z"/>
	<path fill="#284199" d="M533.755,252.248v0.771h-14.785v-0.771h0.938c0.819,0,1.48-0.146,1.98-0.438
		c0.361-0.194,0.64-0.527,0.834-1.001c0.153-0.333,0.229-1.209,0.229-2.627V229.58c0-1.446-0.076-2.35-0.229-2.711
		c-0.152-0.361-0.462-0.678-0.928-0.949s-1.095-0.407-1.887-0.407h-0.938v-0.771h14.785v0.771h-0.938c-0.82,0-1.48,0.146-1.98,0.438
		c-0.362,0.195-0.646,0.529-0.855,1.001c-0.153,0.334-0.229,1.209-0.229,2.628v18.602c0,1.445,0.08,2.35,0.24,2.711
		c0.159,0.361,0.473,0.678,0.938,0.948c0.466,0.271,1.095,0.407,1.887,0.407H533.755z"/>
	<path fill="#284199" d="M563.243,224.095v9.802h-0.813c-0.612-2.558-1.752-4.519-3.421-5.881c-1.668-1.362-3.559-2.043-5.672-2.043
		c-1.766,0-3.386,0.508-4.859,1.522s-2.552,2.343-3.232,3.983c-0.876,2.1-1.313,4.436-1.313,7.007c0,2.531,0.319,4.835,0.959,6.913
		s1.641,3.649,3.003,4.713s3.128,1.596,5.297,1.596c1.779,0,3.41-0.39,4.891-1.168s3.041-2.12,4.682-4.025v2.44
		c-1.585,1.654-3.235,2.854-4.953,3.598c-1.717,0.743-3.722,1.115-6.017,1.115c-3.017,0-5.696-0.604-8.039-1.814
		c-2.343-1.209-4.15-2.947-5.422-5.214c-1.272-2.266-1.908-4.677-1.908-7.236c0-2.697,0.705-5.255,2.116-7.674
		c1.411-2.419,3.316-4.296,5.715-5.631c2.397-1.334,4.945-2.002,7.643-2.002c1.988,0,4.088,0.431,6.299,1.293
		c1.278,0.5,2.092,0.75,2.439,0.75c0.445,0,0.831-0.163,1.157-0.49c0.327-0.327,0.539-0.845,0.637-1.554H563.243z"/>
	<path fill="#284199" d="M582.076,224.345c4.505-0.167,8.164,1.147,10.979,3.942c2.815,2.794,4.224,6.291,4.224,10.49
		c0,3.587-1.05,6.742-3.149,9.468c-2.78,3.614-6.708,5.422-11.782,5.422c-5.089,0-9.023-1.724-11.804-5.172
		c-2.197-2.725-3.296-5.957-3.296-9.697c0-4.199,1.429-7.699,4.286-10.5C574.391,225.496,577.905,224.178,582.076,224.345z
		 M582.326,225.68c-2.586,0-4.554,1.321-5.901,3.962c-1.099,2.169-1.647,5.283-1.647,9.343c0,4.824,0.848,8.39,2.544,10.698
		c1.182,1.613,2.836,2.419,4.963,2.419c1.433,0,2.628-0.347,3.588-1.042c1.223-0.89,2.175-2.312,2.856-4.266
		c0.682-1.953,1.022-4.501,1.022-7.642c0-3.74-0.348-6.538-1.043-8.394s-1.582-3.167-2.659-3.931S583.73,225.68,582.326,225.68z"/>
	<path fill="#284199" d="M609.436,224.741l13.952,17.538v-12.158c0-1.696-0.244-2.843-0.73-3.441
		c-0.667-0.806-1.786-1.196-3.357-1.168v-0.771h9.343v0.771c-1.195,0.153-1.999,0.352-2.408,0.594c-0.41,0.244-0.73,0.64-0.96,1.189
		s-0.344,1.491-0.344,2.826v23.544h-0.709l-19.124-23.544v17.976c0,1.627,0.372,2.726,1.116,3.295
		c0.743,0.57,1.595,0.855,2.555,0.855h0.667v0.771h-10.031v-0.771c1.558-0.014,2.642-0.334,3.254-0.959
		c0.611-0.626,0.917-1.689,0.917-3.191v-19.957l-0.604-0.751c-0.598-0.75-1.126-1.244-1.585-1.48s-1.119-0.368-1.981-0.396v-0.771
		H609.436z M619.697,216.441h1.105c0.014,0.278,0.021,0.515,0.021,0.709c0,1.53-0.431,2.76-1.293,3.691
		c-0.862,0.932-1.905,1.397-3.128,1.397c-0.904,0-2.041-0.327-3.41-0.98c-1.369-0.653-2.283-0.98-2.742-0.98
		c-0.417,0-0.765,0.139-1.043,0.417c-0.278,0.278-0.473,0.779-0.584,1.501h-1.209c-0.056-1.807,0.357-3.225,1.24-4.254
		c0.883-1.028,1.971-1.543,3.264-1.543c0.417,0,0.765,0.042,1.043,0.125c0.39,0.111,1.057,0.39,2.002,0.834
		c1.432,0.654,2.454,0.98,3.065,0.98c0.306,0,0.598-0.125,0.876-0.375C619.182,217.714,619.447,217.206,619.697,216.441z"/>
	<path fill="#284199" d="M649.708,224.095l0.229,9.426h-0.855c-0.403-2.363-1.394-4.265-2.972-5.704s-3.285-2.159-5.12-2.159
		c-1.418,0-2.541,0.379-3.368,1.137s-1.24,1.63-1.24,2.617c0,0.625,0.146,1.182,0.438,1.668c0.403,0.654,1.05,1.3,1.939,1.939
		c0.653,0.458,2.162,1.272,4.525,2.44c3.309,1.626,5.54,3.163,6.694,4.609c1.14,1.446,1.71,3.1,1.71,4.963
		c0,2.363-0.921,4.397-2.763,6.1c-1.843,1.703-4.182,2.555-7.018,2.555c-0.89,0-1.731-0.09-2.523-0.271
		c-0.793-0.181-1.787-0.521-2.982-1.022c-0.667-0.277-1.217-0.417-1.647-0.417c-0.361,0-0.744,0.14-1.147,0.417
		c-0.403,0.278-0.729,0.702-0.979,1.272h-0.771v-10.678h0.771c0.611,3.003,1.79,5.294,3.534,6.872
		c1.745,1.578,3.626,2.367,5.642,2.367c1.557,0,2.798-0.425,3.723-1.272s1.387-1.835,1.387-2.962c0-0.667-0.177-1.313-0.532-1.939
		c-0.354-0.625-0.893-1.22-1.616-1.782c-0.723-0.563-2.002-1.297-3.837-2.2c-2.572-1.266-4.421-2.343-5.547-3.233
		c-1.127-0.89-1.992-1.884-2.597-2.982c-0.604-1.098-0.907-2.308-0.907-3.628c0-2.252,0.827-4.171,2.481-5.756
		s3.74-2.377,6.257-2.377c0.917,0,1.807,0.111,2.669,0.333c0.653,0.167,1.449,0.477,2.388,0.928s1.596,0.678,1.971,0.678
		c0.362,0,0.646-0.111,0.855-0.333c0.209-0.223,0.403-0.758,0.584-1.606H649.708z"/>
	<path fill="#284199" d="M680.343,224.741v7.654h-0.751c-0.445-1.766-0.938-3.035-1.48-3.806s-1.286-1.387-2.231-1.846
		c-0.528-0.25-1.453-0.375-2.773-0.375H671v21.814c0,1.445,0.079,2.35,0.239,2.711s0.473,0.678,0.938,0.948
		c0.466,0.271,1.102,0.407,1.908,0.407h0.938v0.771h-14.807v-0.771h0.938c0.82,0,1.48-0.146,1.981-0.438
		c0.361-0.194,0.646-0.527,0.854-1.001c0.153-0.333,0.229-1.209,0.229-2.627v-21.814h-2.043c-1.905,0-3.289,0.403-4.15,1.209
		c-1.21,1.126-1.975,2.732-2.294,4.818h-0.793v-7.654H680.343z"/>
	<path fill="#284199" d="M697.526,252.248v0.771h-14.785v-0.771h0.938c0.819,0,1.48-0.146,1.98-0.438
		c0.361-0.194,0.64-0.527,0.834-1.001c0.153-0.333,0.229-1.209,0.229-2.627V229.58c0-1.446-0.076-2.35-0.229-2.711
		c-0.152-0.361-0.462-0.678-0.928-0.949s-1.095-0.407-1.887-0.407h-0.938v-0.771h14.785v0.771h-0.938c-0.82,0-1.48,0.146-1.98,0.438
		c-0.362,0.195-0.646,0.529-0.855,1.001c-0.153,0.334-0.229,1.209-0.229,2.628v18.602c0,1.445,0.08,2.35,0.24,2.711
		c0.159,0.361,0.473,0.678,0.938,0.948c0.466,0.271,1.095,0.407,1.887,0.407H697.526z"/>
	<path fill="#284199" d="M725.451,224.741v7.654H724.7c-0.445-1.766-0.938-3.035-1.48-3.806s-1.286-1.387-2.231-1.846
		c-0.528-0.25-1.453-0.375-2.773-0.375h-2.106v21.814c0,1.445,0.079,2.35,0.239,2.711s0.473,0.678,0.938,0.948
		c0.466,0.271,1.102,0.407,1.908,0.407h0.938v0.771h-14.807v-0.771h0.938c0.82,0,1.48-0.146,1.981-0.438
		c0.361-0.194,0.646-0.527,0.854-1.001c0.153-0.333,0.229-1.209,0.229-2.627v-21.814h-2.043c-1.905,0-3.289,0.403-4.15,1.209
		c-1.21,1.126-1.975,2.732-2.294,4.818h-0.793v-7.654H725.451z"/>
	<path fill="#284199" d="M727.995,224.741h14.599v0.771h-0.73c-1.099,0-1.853,0.115-2.263,0.344s-0.702,0.546-0.876,0.949
		c-0.174,0.403-0.261,1.411-0.261,3.024v13.847c0,2.53,0.191,4.206,0.574,5.025c0.382,0.821,1.011,1.502,1.887,2.044
		c0.876,0.543,1.981,0.813,3.316,0.813c1.529,0,2.832-0.344,3.91-1.032c1.077-0.688,1.884-1.637,2.419-2.847
		s0.803-3.315,0.803-6.318V229.83c0-1.265-0.132-2.169-0.396-2.711c-0.264-0.542-0.598-0.917-1.001-1.126
		c-0.625-0.32-1.509-0.48-2.648-0.48v-0.771h9.781v0.771h-0.584c-0.793,0-1.453,0.16-1.981,0.48s-0.91,0.799-1.146,1.439
		c-0.182,0.445-0.271,1.244-0.271,2.398v10.74c0,3.323-0.219,5.721-0.657,7.195c-0.438,1.474-1.505,2.829-3.201,4.066
		s-4.011,1.855-6.944,1.855c-2.447,0-4.338-0.326-5.673-0.979c-1.821-0.89-3.106-2.03-3.857-3.421
		c-0.751-1.39-1.126-3.26-1.126-5.609V229.83c0-1.626-0.091-2.638-0.271-3.034c-0.181-0.396-0.494-0.712-0.938-0.949
		c-0.445-0.236-1.266-0.348-2.461-0.334V224.741z"/>
	<path fill="#284199" d="M784.782,224.741v7.654h-0.751c-0.445-1.766-0.938-3.035-1.48-3.806s-1.286-1.387-2.231-1.846
		c-0.528-0.25-1.453-0.375-2.773-0.375h-2.106v21.814c0,1.445,0.079,2.35,0.239,2.711s0.473,0.678,0.938,0.948
		c0.466,0.271,1.102,0.407,1.908,0.407h0.938v0.771h-14.807v-0.771h0.938c0.82,0,1.48-0.146,1.981-0.438
		c0.361-0.194,0.646-0.527,0.854-1.001c0.153-0.333,0.229-1.209,0.229-2.627v-21.814h-2.043c-1.905,0-3.289,0.403-4.15,1.209
		c-1.21,1.126-1.975,2.732-2.294,4.818h-0.793v-7.654H784.782z"/>
	<path fill="#284199" d="M801.967,252.248v0.771h-14.785v-0.771h0.938c0.819,0,1.48-0.146,1.98-0.438
		c0.361-0.194,0.64-0.527,0.834-1.001c0.153-0.333,0.229-1.209,0.229-2.627V229.58c0-1.446-0.076-2.35-0.229-2.711
		c-0.152-0.361-0.462-0.678-0.928-0.949s-1.095-0.407-1.887-0.407h-0.938v-0.771h14.785v0.771h-0.938c-0.82,0-1.48,0.146-1.98,0.438
		c-0.362,0.195-0.646,0.529-0.855,1.001c-0.153,0.334-0.229,1.209-0.229,2.628v18.602c0,1.445,0.08,2.35,0.24,2.711
		c0.159,0.361,0.473,0.678,0.938,0.948c0.466,0.271,1.095,0.407,1.887,0.407H801.967z"/>
	<path fill="#284199" d="M819.443,224.345c4.505-0.167,8.164,1.147,10.979,3.942c2.815,2.794,4.224,6.291,4.224,10.49
		c0,3.587-1.05,6.742-3.149,9.468c-2.78,3.614-6.708,5.422-11.782,5.422c-5.089,0-9.023-1.724-11.804-5.172
		c-2.197-2.725-3.296-5.957-3.296-9.697c0-4.199,1.429-7.699,4.286-10.5C811.759,225.496,815.272,224.178,819.443,224.345z
		 M819.693,225.68c-2.586,0-4.554,1.321-5.901,3.962c-1.099,2.169-1.647,5.283-1.647,9.343c0,4.824,0.848,8.39,2.544,10.698
		c1.182,1.613,2.836,2.419,4.963,2.419c1.433,0,2.628-0.347,3.588-1.042c1.223-0.89,2.175-2.312,2.856-4.266
		c0.682-1.953,1.022-4.501,1.022-7.642c0-3.74-0.348-6.538-1.043-8.394s-1.582-3.167-2.659-3.931S821.097,225.68,819.693,225.68z"/>
	<path fill="#284199" d="M846.803,224.741l13.952,17.538v-12.158c0-1.696-0.244-2.843-0.73-3.441
		c-0.667-0.806-1.786-1.196-3.357-1.168v-0.771h9.343v0.771c-1.195,0.153-1.999,0.352-2.408,0.594c-0.41,0.244-0.73,0.64-0.96,1.189
		s-0.344,1.491-0.344,2.826v23.544h-0.709l-19.124-23.544v17.976c0,1.627,0.372,2.726,1.116,3.295
		c0.743,0.57,1.595,0.855,2.555,0.855h0.667v0.771h-10.031v-0.771c1.558-0.014,2.642-0.334,3.254-0.959
		c0.611-0.626,0.917-1.689,0.917-3.191v-19.957l-0.604-0.751c-0.598-0.75-1.126-1.244-1.585-1.48s-1.119-0.368-1.981-0.396v-0.771
		H846.803z M857.064,216.441h1.105c0.014,0.278,0.021,0.515,0.021,0.709c0,1.53-0.431,2.76-1.293,3.691
		c-0.862,0.932-1.905,1.397-3.128,1.397c-0.904,0-2.041-0.327-3.41-0.98c-1.369-0.653-2.283-0.98-2.742-0.98
		c-0.417,0-0.765,0.139-1.043,0.417c-0.278,0.278-0.473,0.779-0.584,1.501h-1.209c-0.056-1.807,0.357-3.225,1.24-4.254
		c0.883-1.028,1.971-1.543,3.264-1.543c0.417,0,0.765,0.042,1.043,0.125c0.39,0.111,1.057,0.39,2.002,0.834
		c1.432,0.654,2.454,0.98,3.065,0.98c0.306,0,0.598-0.125,0.876-0.375C856.55,217.714,856.814,217.206,857.064,216.441z"/>
	<path fill="#284199" d="M877.647,224.741l13.952,17.538v-12.158c0-1.696-0.244-2.843-0.73-3.441
		c-0.667-0.806-1.786-1.196-3.357-1.168v-0.771h9.343v0.771c-1.195,0.153-1.999,0.352-2.408,0.594c-0.41,0.244-0.73,0.64-0.96,1.189
		s-0.344,1.491-0.344,2.826v23.544h-0.709l-19.124-23.544v17.976c0,1.627,0.372,2.726,1.116,3.295
		c0.743,0.57,1.595,0.855,2.555,0.855h0.667v0.771h-10.031v-0.771c1.558-0.014,2.642-0.334,3.254-0.959
		c0.611-0.626,0.917-1.689,0.917-3.191v-19.957l-0.604-0.751c-0.598-0.75-1.126-1.244-1.585-1.48s-1.119-0.368-1.981-0.396v-0.771
		H877.647z M887.908,216.441h1.105c0.014,0.278,0.021,0.515,0.021,0.709c0,1.53-0.431,2.76-1.293,3.691
		c-0.862,0.932-1.905,1.397-3.128,1.397c-0.904,0-2.041-0.327-3.41-0.98c-1.369-0.653-2.283-0.98-2.742-0.98
		c-0.417,0-0.765,0.139-1.043,0.417c-0.278,0.278-0.473,0.779-0.584,1.501h-1.209c-0.056-1.807,0.357-3.225,1.24-4.254
		c0.883-1.028,1.971-1.543,3.264-1.543c0.417,0,0.765,0.042,1.043,0.125c0.39,0.111,1.057,0.39,2.002,0.834
		c1.432,0.654,2.454,0.98,3.065,0.98c0.306,0,0.598-0.125,0.876-0.375C887.393,217.714,887.658,217.206,887.908,216.441z"/>
	<path fill="#284199" d="M909.493,226.368v11.512h0.563c1.793,0,3.093-0.563,3.899-1.689c0.807-1.126,1.321-2.788,1.543-4.984h0.793
		v14.807h-0.793c-0.166-1.613-0.518-2.934-1.053-3.962c-0.535-1.028-1.157-1.72-1.866-2.075s-1.738-0.532-3.087-0.532v7.965
		c0,1.558,0.066,2.51,0.198,2.857s0.379,0.633,0.74,0.855s0.945,0.333,1.752,0.333h1.689c2.641,0,4.758-0.611,6.35-1.835
		c1.592-1.223,2.735-3.086,3.431-5.589h0.771l-1.271,8.988h-24.441v-0.771h0.938c0.819,0,1.48-0.146,1.98-0.438
		c0.361-0.194,0.64-0.527,0.834-1.001c0.153-0.333,0.229-1.209,0.229-2.627V229.58c0-1.279-0.034-2.065-0.104-2.357
		c-0.14-0.486-0.396-0.862-0.772-1.126c-0.528-0.389-1.251-0.584-2.168-0.584h-0.938v-0.771h23.67v8.363h-0.793
		c-0.403-2.044-0.97-3.511-1.699-4.4c-0.73-0.89-1.763-1.543-3.098-1.96c-0.778-0.25-2.238-0.375-4.379-0.375H909.493z"/>
	<path fill="#284199" d="M953.308,243.093l-1.063,9.927h-25.109v-0.771h0.938c0.82,0,1.481-0.146,1.981-0.438
		c0.361-0.194,0.64-0.527,0.834-1.001c0.153-0.333,0.229-1.209,0.229-2.627V229.58c0-1.446-0.076-2.35-0.229-2.711
		c-0.152-0.361-0.462-0.678-0.928-0.949s-1.095-0.407-1.888-0.407h-0.938v-0.771h15.078v0.771h-1.23c-0.82,0-1.48,0.146-1.98,0.438
		c-0.362,0.195-0.646,0.529-0.855,1.001c-0.153,0.334-0.229,1.209-0.229,2.628v18.018c0,1.446,0.084,2.366,0.25,2.763
		c0.167,0.396,0.494,0.692,0.98,0.887c0.348,0.125,1.188,0.188,2.523,0.188h2.356c1.502,0,2.753-0.264,3.754-0.792
		s1.866-1.363,2.597-2.503c0.729-1.14,1.421-2.822,2.075-5.047H953.308z"/>
</g>
</svg>
