<?xml version="1.0" encoding="UTF-8"?>
<svg id="Calque_1" xmlns="http://www.w3.org/2000/svg" viewBox="0 0 285.67 115.59">
  <defs>
    <style>
      .cls-1 {
        fill: #1d1d1b;
      }

      .cls-2 {
        fill: #000091;
      }

      .cls-3 {
        fill: #9d9d9c;
      }

      .cls-4 {
        fill: #1d1d1b;
      }

      .cls-5 {
        fill: #e1000f;
      }
    </style>
  </defs>
  <g>
    <g>
      <g>
        <g>
          <path class="cls-2" d="M169.08,15.76c-15.74,0-28.5,12.76-28.5,28.5,0,6.73,2.34,12.88,6.25,17.76h3.48v3.68c1.51,1.33,3.16,2.46,4.93,3.44h2.18v1.13c3.56,1.6,7.5,2.49,11.66,2.49,2.26,0,4.45-.27,6.56-.77l-6.75-12.83c-1.51-.02-2.97-.27-4.35-.7v.04h-3.56v-1.74c-.82-.53-1.59-1.18-2.29-1.86h-1.27v3.56h-3.56v-3.56h3.56v-1.35c-2.03-2.55-3.26-5.77-3.26-9.29,0-8.24,6.68-14.91,14.91-14.91,4.89,0,9.22,2.36,11.94,6l9.67-9.67c-5.23-6.07-12.96-9.92-21.6-9.92ZM160.99,62.06h3.56v3.56h-3.56v-3.56Z"/>
          <g>
            <polygon class="cls-5" points="160.99 58.46 160.99 54.9 157.43 54.9 157.43 58.46 153.87 58.46 150.31 58.46 150.31 62.02 153.87 62.02 153.87 65.58 150.31 65.58 150.31 69.14 146.75 69.14 146.75 72.7 150.31 72.7 153.87 72.7 153.87 69.14 157.43 69.14 157.43 65.58 160.99 65.58 160.99 62.02 164.55 62.02 164.55 58.46 160.99 58.46"/>
            <rect class="cls-5" x="143.19" y="62.02" width="3.56" height="3.56"/>
            <rect class="cls-5" x="157.43" y="69.14" width="3.56" height="3.56"/>
          </g>
        </g>
        <g>
          <g>
            <polygon class="cls-5" points="217.21 45.47 214.68 45.47 216.89 49.67 219.41 49.67 217.21 45.47"/>
            <g>
              <path class="cls-5" d="M183.46,41.97c-.15-.18-.33-.34-.51-.49-.82-.7-1.89-1.13-3.07-1.13-.45,0-.89.07-1.31.19-1.99.57-3.46,2.4-3.46,4.58s1.49,4.04,3.5,4.59c.4.11.83.18,1.27.18,1.16,0,2.22-.42,3.05-1.11.19-.16.38-.33.54-.52l-1.62-1.62s-.02.02-.03.04c-.46.57-1.15.94-1.93.94-.05,0-.1-.01-.15-.01-1.3-.08-2.34-1.16-2.34-2.48s1.02-2.37,2.3-2.47c.06,0,.13-.02.19-.02.8,0,1.51.38,1.96.97h0s1.62-1.62,1.62-1.62Z"/>
              <path class="cls-5" d="M216.36,40.58h-4.67v9.09h2.34v-2.72h2.33c1.8,0,3.16-1.5,3.16-3.18s-1.4-3.19-3.16-3.19ZM216.36,44.71h-2.33v-1.87h2.33c.52,0,.9.44.9.94s-.41.92-.9.92Z"/>
              <path class="cls-5" d="M200.1,44.75c.56-.31.99-1.01.99-1.88,0-1.28-1.1-2.29-2.34-2.29h-5.18v9.09h5.17c1.62,0,2.79-1.22,2.79-2.74,0-1.26-.68-1.99-1.43-2.18ZM195.81,42.8h2.41c.37,0,.59.23.59.54s-.22.55-.59.55h-2.41v-1.09ZM198.37,47.45h-2.56v-1.35h2.56c.38,0,.68.27.68.68,0,.34-.26.67-.68.67Z"/>
              <path class="cls-5" d="M202.76,49.67h7.22v-2.25h-4.93v-1.17h3.8v-2.23h-3.8v-1.19h4.93v-2.25h-7.22v9.09Z"/>
              <polygon class="cls-5" points="188.41 43.35 186.95 40.58 184.36 40.58 187.12 45.81 185.08 49.67 187.61 49.67 192.4 40.58 189.87 40.58 188.41 43.35"/>
            </g>
          </g>
          <g>
            <path class="cls-2" d="M180.57,70.67c.37,0,.66.29.66.65s-.29.64-.66.64-.65-.28-.65-.64.29-.65.65-.65Z"/>
            <path class="cls-2" d="M191.64,67.73v.27c0,2.55-1.55,4.07-3.99,4.07-.79,0-1.48-.18-2.01-.47-1.31-.71-2.06-2.03-2.06-3.65,0-1.33.42-2.4,1.28-3.22.73-.69,1.69-1.04,2.84-1.04,1.52,0,2.65.55,3.4,1.68l-.79.64c-.58-.97-1.44-1.45-2.57-1.45-1.85,0-3.13,1.37-3.13,3.39,0,1.91,1.31,3.26,3.13,3.26,1.59,0,2.77-1.06,2.88-2.62h-2.28v-.85h3.3Z"/>
            <path class="cls-2" d="M200.53,70.84c-.82.79-1.91,1.23-3.03,1.23s-2.21-.45-3.02-1.23c-.82-.79-1.25-1.82-1.25-2.96s.44-2.18,1.25-2.97c.8-.78,1.89-1.22,3.02-1.22s2.22.44,3.03,1.22c.82.79,1.24,1.83,1.24,2.97s-.44,2.18-1.24,2.96ZM199.82,70.2c.63-.63.96-1.43.96-2.32s-.34-1.72-.96-2.34c-.63-.63-1.43-.96-2.31-.96s-1.7.34-2.31.96c-.63.64-.96,1.45-.96,2.34s.34,1.69.96,2.32c.64.64,1.43.97,2.31.97s1.68-.34,2.31-.97Z"/>
            <path class="cls-2" d="M204.47,63.87v4.97c0,1.6.65,2.34,2.13,2.34s2.13-.75,2.13-2.34v-4.97h.96v4.97c0,2.16-1.02,3.23-3.09,3.23s-3.09-1.07-3.09-3.23v-4.97h.96Z"/>
            <path class="cls-2" d="M211.27,63.87h1.03l2.34,6.11,2.33-6.11h1.03l-3.36,8.3-3.37-8.3Z"/>
            <path class="cls-2" d="M218.67,70.67c.37,0,.66.29.66.65s-.29.64-.66.64-.65-.28-.65-.64.29-.65.65-.65Z"/>
            <path class="cls-2" d="M222.06,63.87h4.21v.87h-3.26v2.29h3.26v.88h-3.26v3.94h-.95v-7.99Z"/>
            <path class="cls-2" d="M228.5,63.87h1.88c.76,0,1.34.02,1.83.4.46.36.75.99.75,1.78,0,1.31-.75,2-2.16,2h-.17l3.05,3.81h-1.21l-2.92-3.81h-.13v3.81h-.93v-7.99ZM229.43,67.34h.73c1.25,0,1.87-.18,1.87-1.28,0-1.16-.6-1.38-1.87-1.38h-.73v2.67Z"/>
          </g>
          <g>
            <path class="cls-2" d="M182.01,56.48s.04-.02.05-.03v4.88h2.28v-9.24s-.01,0-.01,0l-2.32,4.39Z"/>
            <polygon class="cls-2" points="204.38 56.68 206.34 52.93 204.37 56.66 204.38 56.68"/>
            <path class="cls-2" d="M206.34,52.93l.37-.69h0l-.36.69Z"/>
            <path class="cls-2" d="M260.9,55.22c.18-.18,1.48-1.54,1.59-1.65-.14-.14-.32-.3-.51-.46l-1.1,2.09s0,.01.01.01Z"/>
            <g>
              <path class="cls-2" d="M175.7,52.08v9.24h2.27v-4.88c.32.21,1.74,1.12,2.04,1.29.26-.16,1.61-1,2.01-1.26l2.32-4.39c-.49.34-3.89,2.54-4.32,2.84-.42-.29-3.68-2.44-4.31-2.85Z"/>
              <path class="cls-2" d="M197.78,52.23h-2.33v9.09h4.98v-2.21h-2.64v-6.88Z"/>
              <path class="cls-2" d="M225.23,52.23h-2.33v9.09h4.97v-2.21h-2.64v-6.88Z"/>
              <path class="cls-2" d="M231.73,52.23h-2.33v9.09h4.98v-2.21h-2.65v-6.88Z"/>
              <path class="cls-2" d="M206.7,52.23l-.37.69-1.96,3.76v-.03s-2.31-4.42-2.31-4.42h-2.48c.16.39,2.2,4.15,3.58,6.71.59,1.12,1.07,2.01,1.2,2.29v.09s.02-.03.02-.04c0,.01.02.04.02.04v-.09c.42-.92,4.55-8.43,4.77-9h-2.47Z"/>
              <path class="cls-2" d="M189.8,52.32v-.09s-.01.04-.02.04c0,0-.02-.03-.02-.04v.09c-.43.92-4.55,8.44-4.77,9h2.47l.37-.69.18-.34h3.55l.54,1.03h2.48c-.16-.4-2.2-4.16-3.58-6.71-.6-1.12-1.07-2.01-1.2-2.29ZM189.1,58.19l.68-1.31v.02s.68,1.29.68,1.29h-1.37Z"/>
              <path class="cls-2" d="M239.8,52.32v-.09s-.02.04-.02.04c0,0-.02-.03-.03-.04v.09c-.43.92-4.54,8.44-4.77,9h2.47l.37-.69.18-.34h3.55l.54,1.03h2.48c-.16-.4-2.2-4.16-3.57-6.71-.6-1.12-1.07-2.01-1.2-2.29ZM239.1,58.19l.68-1.31v.02s.68,1.29.68,1.29h-1.37Z"/>
              <path class="cls-2" d="M210.13,61.32h7.23v-2.25h-4.93v-1.17h3.8v-2.23h-3.8v-1.19h4.93v-2.25h-7.23v9.09Z"/>
              <path class="cls-2" d="M218.91,61.32h2.36v-9.09h-2.36v9.09Z"/>
              <path class="cls-2" d="M250.58,56.5c-.45-.38-4.61-4.11-4.98-4.44v9.27h2.29v-4.26c.39.34,4.51,4.05,4.96,4.44v-9.27h-2.27v4.26Z"/>
              <path class="cls-2" d="M259,59.26c-.08,0-.16-.02-.25-.03-1.24-.13-2.2-1.21-2.2-2.45,0-1.39,1.12-2.49,2.45-2.49,1.04,0,1.54.58,1.89.91l1.1-2.09c-.67-.55-1.65-1.1-2.98-1.1-2.6,0-4.8,2.05-4.8,4.77,0,2.25,1.5,3.98,3.45,4.54.44.13.88.21,1.35.21,1.68,0,2.89-.99,3.52-1.68-.14-.14-1.45-1.47-1.58-1.61-.45.56-1.14,1.01-1.94,1.01Z"/>
              <path class="cls-2" d="M270.82,54.48v-2.25h-7.23v9.09h7.23v-2.25h-4.94v-1.17h3.8v-2.23h-3.8v-1.19h4.94Z"/>
            </g>
          </g>
        </g>
      </g>
      <rect class="cls-5" x="164.54" y="51.35" width="3.56" height="3.56"/>
      <rect class="cls-5" x="157.43" y="47.79" width="3.56" height="3.56"/>
    </g>
    <g>
      <path class="cls-4" d="M149.01,82.79h1.13l2.51,6.3h-.9l-.73-1.85h-2.9l-.73,1.85h-.9l2.51-6.3ZM150.75,86.51l-1.17-2.98-1.17,2.98h2.34Z"/>
      <path class="cls-4" d="M154.57,88c.32.4.69.63,1.15.63.5,0,.79-.31.79-.7,0-1.03-2.22-.65-2.22-2.28,0-.73.6-1.28,1.46-1.28.67,0,1.22.31,1.54.75l-.53.46c-.25-.36-.58-.57-1-.57-.47,0-.72.25-.72.62,0,1.04,2.22.68,2.22,2.26,0,.85-.68,1.38-1.53,1.38-.72,0-1.29-.29-1.7-.8l.54-.47Z"/>
      <path class="cls-4" d="M159.33,88c.32.4.69.63,1.15.63.5,0,.79-.31.79-.7,0-1.03-2.22-.65-2.22-2.28,0-.73.6-1.28,1.46-1.28.67,0,1.22.31,1.54.75l-.53.46c-.25-.36-.58-.57-1-.57-.47,0-.72.25-.72.62,0,1.04,2.22.68,2.22,2.26,0,.85-.68,1.38-1.53,1.38-.72,0-1.29-.29-1.7-.8l.54-.47Z"/>
      <path class="cls-4" d="M163.92,82.83c0-.29.24-.53.54-.53s.53.24.53.53-.23.54-.53.54-.54-.24-.54-.54ZM164.08,84.55h.76v4.54h-.76v-4.54Z"/>
      <path class="cls-4" d="M167.29,88c.32.4.69.63,1.15.63.5,0,.79-.31.79-.7,0-1.03-2.22-.65-2.22-2.28,0-.73.6-1.28,1.46-1.28.67,0,1.22.31,1.54.75l-.53.46c-.25-.36-.58-.57-1-.57-.47,0-.72.25-.72.62,0,1.04,2.22.68,2.22,2.26,0,.85-.68,1.38-1.53,1.38-.72,0-1.29-.29-1.7-.8l.54-.47Z"/>
      <path class="cls-4" d="M172.33,85.26h-.86v-.7h.86v-1.13h.77v1.13h1.58v.7h-1.58v2.31c0,.71.36.91.91.91.3,0,.5-.04.67-.11v.68c-.22.09-.46.13-.78.13-1.01,0-1.58-.5-1.58-1.61v-2.31Z"/>
      <path class="cls-4" d="M176.41,87.97c0-.7.52-1.21,1.49-1.36l1.52-.25v-.32c0-.63-.45-.99-1.09-.99-.53,0-.97.23-1.23.63l-.58-.44c.4-.54,1.04-.87,1.83-.87,1.15,0,1.84.67,1.84,1.67v3.04h-.76v-.58c-.34.48-.91.76-1.52.76-.89,0-1.49-.5-1.49-1.3ZM178.03,88.63c.6,0,1.08-.32,1.4-.84v-.86l-1.34.23c-.63.1-.91.39-.91.78s.33.68.86.68Z"/>
      <path class="cls-4" d="M182.55,84.55h.76v.51c.37-.4.84-.69,1.51-.69,1.02,0,1.77.68,1.77,1.97v2.75h-.77v-2.72c0-.81-.45-1.28-1.15-1.28-.66,0-1.07.38-1.36.86v3.14h-.76v-4.54Z"/>
      <path class="cls-4" d="M192.32,87.88l.61.47c-.42.57-1.08.93-1.91.93-1.5,0-2.47-1.13-2.47-2.45s.96-2.45,2.47-2.45c.82,0,1.49.37,1.91.93l-.61.47c-.28-.41-.74-.68-1.3-.68-.97,0-1.67.77-1.67,1.73s.69,1.73,1.67,1.73c.56,0,1.01-.27,1.29-.67Z"/>
      <path class="cls-4" d="M196.7,89.27c-1.53,0-2.48-1.13-2.48-2.45s.88-2.45,2.29-2.45c1.23,0,2.03.84,2.03,1.97,0,.18-.03.36-.05.49h-3.47v.02c0,1,.68,1.73,1.7,1.73.58,0,1.06-.27,1.36-.68l.57.44c-.42.57-1.1.93-1.95.93ZM195.08,86.23h2.69c-.03-.66-.5-1.2-1.25-1.2s-1.26.41-1.44,1.2Z"/>
      <path class="cls-4" d="M205.98,89.27c-1.53,0-2.48-1.13-2.48-2.45s.88-2.45,2.29-2.45c1.23,0,2.03.84,2.03,1.97,0,.18-.03.36-.05.49h-3.47v.02c0,1,.68,1.73,1.7,1.73.58,0,1.06-.27,1.36-.68l.57.44c-.42.57-1.1.93-1.95.93ZM204.36,86.23h2.69c-.03-.66-.5-1.2-1.25-1.2s-1.26.41-1.44,1.2Z"/>
      <path class="cls-4" d="M210.16,85.26h-.86v-.7h.86v-1.13h.77v1.13h1.58v.7h-1.58v2.31c0,.71.36.91.91.91.3,0,.5-.04.67-.11v.68c-.22.09-.46.13-.78.13-1.01,0-1.58-.5-1.58-1.61v-2.31Z"/>
      <path class="cls-4" d="M217.73,84.55h.76v.5c.41-.44.95-.68,1.61-.68,1.42,0,2.33,1.12,2.33,2.45s-.91,2.45-2.33,2.45c-.66,0-1.2-.24-1.61-.68v2.72h-.76v-6.75ZM220.02,88.55c.96,0,1.62-.76,1.62-1.73s-.66-1.73-1.62-1.73c-.63,0-1.17.31-1.52.86v1.73c.35.56.89.86,1.52.86Z"/>
      <path class="cls-4" d="M224.48,84.55h.76v.57c.33-.4.75-.66,1.32-.66.14,0,.28.02.39.05v.79c-.13-.04-.27-.06-.45-.06-.59,0-.98.31-1.26.76v3.08h-.76v-4.54Z"/>
      <path class="cls-4" d="M230.73,89.27c-1.53,0-2.48-1.13-2.48-2.45s.88-2.45,2.29-2.45c1.23,0,2.03.84,2.03,1.97,0,.18-.03.36-.05.49h-3.47v.02c0,1,.68,1.73,1.7,1.73.58,0,1.06-.27,1.36-.68l.57.44c-.42.57-1.1.93-1.95.93ZM229.11,86.23h2.69c-.03-.66-.5-1.2-1.25-1.2s-1.26.41-1.44,1.2ZM230.2,83.83l.94-1.49h.86l-1.05,1.49h-.75Z"/>
      <path class="cls-4" d="M234.73,84.55l1.45,3.74,1.45-3.74h.83l-1.77,4.54h-1.01l-1.77-4.54h.83Z"/>
      <path class="cls-4" d="M242.22,89.27c-1.53,0-2.48-1.13-2.48-2.45s.88-2.45,2.29-2.45c1.23,0,2.03.84,2.03,1.97,0,.18-.03.36-.05.49h-3.47v.02c0,1,.68,1.73,1.7,1.73.58,0,1.06-.27,1.36-.68l.57.44c-.42.57-1.1.93-1.95.93ZM240.6,86.23h2.69c-.03-.66-.5-1.2-1.25-1.2s-1.26.41-1.44,1.2Z"/>
      <path class="cls-4" d="M246.17,84.55h.76v.51c.37-.4.84-.69,1.51-.69,1.02,0,1.77.68,1.77,1.97v2.75h-.77v-2.72c0-.81-.45-1.28-1.15-1.28-.66,0-1.07.38-1.36.86v3.14h-.76v-4.54Z"/>
      <path class="cls-4" d="M252.83,85.26h-.86v-.7h.86v-1.13h.77v1.13h1.58v.7h-1.58v2.31c0,.71.36.91.91.91.3,0,.5-.04.67-.11v.68c-.22.09-.46.13-.78.13-1.01,0-1.58-.5-1.58-1.61v-2.31Z"/>
      <path class="cls-4" d="M257.01,82.83c0-.29.24-.53.54-.53s.53.24.53.53-.23.54-.53.54-.54-.24-.54-.54ZM257.16,84.55h.76v4.54h-.76v-4.54Z"/>
      <path class="cls-4" d="M264.89,86.82c0,1.32-1,2.45-2.46,2.45s-2.46-1.13-2.46-2.45.99-2.45,2.46-2.45,2.46,1.12,2.46,2.45ZM264.07,86.82c0-.95-.69-1.73-1.64-1.73s-1.67.78-1.67,1.73.69,1.73,1.67,1.73,1.64-.79,1.64-1.73Z"/>
      <path class="cls-4" d="M266.93,84.55h.76v.51c.37-.4.84-.69,1.51-.69,1.02,0,1.77.68,1.77,1.97v2.75h-.77v-2.72c0-.81-.45-1.28-1.15-1.28-.66,0-1.07.38-1.36.86v3.14h-.76v-4.54Z"/>
      <path class="cls-4" d="M149.15,100.27c-1.53,0-2.48-1.13-2.48-2.45s.88-2.45,2.29-2.45c1.23,0,2.03.84,2.03,1.97,0,.18-.03.36-.05.49h-3.47v.02c0,1,.68,1.73,1.7,1.73.58,0,1.06-.27,1.36-.68l.57.44c-.42.57-1.1.93-1.95.93ZM147.53,97.23h2.69c-.03-.66-.5-1.2-1.25-1.2s-1.26.41-1.44,1.2Z"/>
      <path class="cls-4" d="M153.11,95.55h.76v.51c.37-.4.84-.69,1.51-.69,1.02,0,1.77.68,1.77,1.97v2.75h-.77v-2.72c0-.81-.45-1.28-1.15-1.28-.66,0-1.07.38-1.36.86v3.14h-.76v-4.54Z"/>
      <path class="cls-4" d="M162.8,99c.32.4.69.63,1.15.63.5,0,.79-.31.79-.7,0-1.03-2.22-.65-2.22-2.28,0-.73.6-1.28,1.46-1.28.67,0,1.22.31,1.54.75l-.53.46c-.25-.36-.58-.57-1-.57-.47,0-.72.25-.72.62,0,1.04,2.22.68,2.22,2.26,0,.85-.68,1.38-1.53,1.38-.72,0-1.29-.29-1.7-.8l.54-.47Z"/>
      <path class="cls-4" d="M169.58,100.27c-1.53,0-2.48-1.13-2.48-2.45s.88-2.45,2.29-2.45c1.23,0,2.03.84,2.03,1.97,0,.18-.03.36-.05.49h-3.47v.02c0,1,.68,1.73,1.7,1.73.58,0,1.06-.27,1.36-.68l.57.44c-.42.57-1.1.93-1.95.93ZM167.96,97.23h2.69c-.03-.66-.5-1.2-1.25-1.2s-1.26.41-1.44,1.2ZM169.05,94.83l.94-1.49h.86l-1.05,1.49h-.75Z"/>
      <path class="cls-4" d="M176.88,98.88l.61.47c-.42.57-1.08.93-1.91.93-1.5,0-2.47-1.13-2.47-2.45s.96-2.45,2.47-2.45c.82,0,1.49.37,1.91.93l-.61.47c-.28-.41-.74-.68-1.3-.68-.97,0-1.67.77-1.67,1.73s.69,1.73,1.67,1.73c.56,0,1.01-.27,1.29-.67Z"/>
      <path class="cls-4" d="M182.51,95.55h.77v2.57c0,1.36-.78,2.15-2.02,2.15s-2.01-.79-2.01-2.15v-2.57h.77v2.59c0,.89.48,1.4,1.25,1.4s1.23-.51,1.23-1.4v-2.59Z"/>
      <path class="cls-4" d="M185.6,95.55h.76v.57c.33-.4.75-.66,1.32-.66.14,0,.28.02.39.05v.79c-.13-.04-.27-.06-.45-.06-.59,0-.98.31-1.26.76v3.08h-.76v-4.54Z"/>
      <path class="cls-4" d="M189.83,93.83c0-.29.24-.53.54-.53s.53.24.53.53-.23.54-.53.54-.54-.24-.54-.54ZM189.99,95.55h.76v4.54h-.76v-4.54Z"/>
      <path class="cls-4" d="M193.44,96.26h-.86v-.7h.86v-1.13h.77v1.13h1.58v.7h-1.58v2.31c0,.71.36.91.91.91.3,0,.5-.04.67-.11v.68c-.22.09-.46.13-.78.13-1.01,0-1.58-.5-1.58-1.61v-2.31Z"/>
      <path class="cls-4" d="M199.77,100.27c-1.53,0-2.48-1.13-2.48-2.45s.88-2.45,2.29-2.45c1.23,0,2.03.84,2.03,1.97,0,.18-.03.36-.05.49h-3.47v.02c0,1,.68,1.73,1.7,1.73.58,0,1.06-.27,1.36-.68l.57.44c-.42.57-1.1.93-1.95.93ZM198.15,97.23h2.69c-.03-.66-.5-1.2-1.25-1.2s-1.26.41-1.44,1.2ZM199.24,94.83l.94-1.49h.86l-1.05,1.49h-.75Z"/>
      <path class="cls-4" d="M206.96,95.55h.76v.51c.37-.4.84-.69,1.51-.69,1.02,0,1.77.68,1.77,1.97v2.75h-.77v-2.72c0-.81-.45-1.28-1.15-1.28-.66,0-1.07.38-1.36.86v3.14h-.76v-4.54Z"/>
      <path class="cls-4" d="M216.51,95.55h.77v2.57c0,1.36-.78,2.15-2.02,2.15s-2.01-.79-2.01-2.15v-2.57h.77v2.59c0,.89.48,1.4,1.25,1.4s1.23-.51,1.23-1.4v-2.59Z"/>
      <path class="cls-4" d="M219.6,95.55h.76v.5c.34-.4.79-.67,1.42-.67.67,0,1.21.31,1.49.91.36-.51.86-.91,1.6-.91.97,0,1.68.65,1.68,1.88v2.84h-.77v-2.81c0-.76-.42-1.19-1.07-1.19-.58,0-.97.33-1.28.86,0,.1.02.2.02.3v2.84h-.77v-2.81c0-.76-.41-1.19-1.06-1.19-.62,0-1.01.39-1.27.86v3.14h-.76v-4.54Z"/>
      <path class="cls-4" d="M231.01,100.27c-1.53,0-2.48-1.13-2.48-2.45s.88-2.45,2.29-2.45c1.23,0,2.03.84,2.03,1.97,0,.18-.03.36-.05.49h-3.47v.02c0,1,.68,1.73,1.7,1.73.58,0,1.06-.27,1.36-.68l.57.44c-.42.57-1.1.93-1.95.93ZM229.39,97.23h2.69c-.03-.66-.5-1.2-1.25-1.2s-1.26.41-1.44,1.2ZM230.48,94.83l.94-1.49h.86l-1.05,1.49h-.75Z"/>
      <path class="cls-4" d="M234.96,95.55h.76v.57c.33-.4.75-.66,1.32-.66.14,0,.28.02.39.05v.79c-.13-.04-.27-.06-.45-.06-.59,0-.98.31-1.26.76v3.08h-.76v-4.54Z"/>
      <path class="cls-4" d="M239.19,93.83c0-.29.24-.53.54-.53s.53.24.53.53-.23.54-.53.54-.54-.24-.54-.54ZM239.34,95.55h.76v4.54h-.76v-4.54Z"/>
      <path class="cls-4" d="M244.48,95.37c.67,0,1.21.25,1.61.69v-.51h.77v6.75h-.77v-2.73c-.41.44-.95.69-1.61.69-1.42,0-2.33-1.13-2.33-2.45s.91-2.45,2.33-2.45ZM244.56,99.55c.64,0,1.18-.31,1.53-.86v-1.73c-.35-.56-.89-.86-1.53-.86-.95,0-1.61.77-1.61,1.73s.66,1.73,1.61,1.73Z"/>
      <path class="cls-4" d="M252.44,95.55h.77v2.57c0,1.36-.78,2.15-2.02,2.15s-2.01-.79-2.01-2.15v-2.57h.77v2.59c0,.89.48,1.4,1.25,1.4s1.23-.51,1.23-1.4v-2.59Z"/>
      <path class="cls-4" d="M257.62,100.27c-1.53,0-2.48-1.13-2.48-2.45s.88-2.45,2.29-2.45c1.23,0,2.03.84,2.03,1.97,0,.18-.03.36-.05.49h-3.47v.02c0,1,.68,1.73,1.7,1.73.58,0,1.06-.27,1.36-.68l.57.44c-.42.57-1.1.93-1.95.93ZM256,97.23h2.69c-.03-.66-.5-1.2-1.25-1.2s-1.26.41-1.44,1.2Z"/>
    </g>
  </g>
  <g>
    <g>
      <path class="cls-1" d="M15.35,37.77h3.42c2.46,0,3.98,1.26,3.98,3.34,0,1.34-.65,2.35-1.79,2.89l3.51,4.95h-2.72l-2.97-4.52h-1.17v4.52h-2.27v-11.18ZM17.61,39.7v2.8h1.28c.96,0,1.52-.51,1.52-1.42,0-.85-.56-1.37-1.52-1.37h-1.28Z"/>
      <path class="cls-1" d="M25.87,37.77h6.52v1.93h-4.25v2.59h3.61v1.93h-3.61v2.8h4.25v1.93h-6.52v-11.18ZM28.08,36.81l1.8-2.16h2.33l-2.08,2.16h-2.06Z"/>
      <path class="cls-1" d="M35.03,37.77h3.69c2.46,0,3.96,1.26,3.96,3.34s-1.5,3.32-3.96,3.32h-1.42v4.52h-2.27v-11.18ZM37.29,39.7v2.8h1.52c.96,0,1.53-.51,1.53-1.42,0-.85-.58-1.37-1.53-1.37h-1.52Z"/>
      <path class="cls-1" d="M51.14,37.77h2.27v6.8c0,2.94-1.72,4.7-4.54,4.7s-4.52-1.76-4.52-4.7v-6.8h2.27v7c0,1.5.85,2.38,2.27,2.38s2.25-.88,2.25-2.38v-7Z"/>
      <path class="cls-1" d="M56.22,37.77h3.18c2.33,0,3.74,1.15,3.74,3.03,0,.89-.42,1.68-1.18,2.2,1.18.53,1.84,1.49,1.84,2.65,0,2.04-1.58,3.29-4.15,3.29h-3.42v-11.18ZM58.49,39.7v2.44h.96c.86,0,1.36-.43,1.36-1.23,0-.75-.5-1.21-1.36-1.21h-.96ZM58.49,44.1v2.92h1.28c1.05,0,1.69-.56,1.69-1.49s-.64-1.44-1.69-1.44h-1.28Z"/>
      <path class="cls-1" d="M66.11,37.77h2.27v9.12h4.25v2.06h-6.52v-11.18Z"/>
      <path class="cls-1" d="M74.62,37.77h2.27v11.18h-2.27v-11.18Z"/>
      <path class="cls-1" d="M91.75,49.74c.24,0,.56-.03.8-.13v1.92c-.37.14-.69.21-1.18.21-1.25,0-2.4-.51-3.5-1.47l-1.33-1.18c-.48.13-.99.19-1.53.19-3.53,0-5.94-2.72-5.94-5.91s2.41-5.91,5.94-5.91,5.93,2.72,5.93,5.91c0,1.87-.83,3.58-2.2,4.66l.67.64c.86.78,1.63,1.07,2.35,1.07ZM88.6,43.36c0-2.14-1.5-3.79-3.59-3.79s-3.61,1.65-3.61,3.79,1.5,3.79,3.61,3.79,3.59-1.65,3.59-3.79Z"/>
      <path class="cls-1" d="M99.7,37.77h2.27v6.8c0,2.94-1.72,4.7-4.54,4.7s-4.52-1.76-4.52-4.7v-6.8h2.27v7c0,1.5.85,2.38,2.27,2.38s2.25-.88,2.25-2.38v-7Z"/>
      <path class="cls-1" d="M104.78,37.77h6.52v1.93h-4.25v2.59h3.61v1.93h-3.61v2.8h4.25v1.93h-6.52v-11.18Z"/>
      <path class="cls-1" d="M15.35,53.89h6.52v1.93h-4.25v2.59h3.61v1.93h-3.61v4.73h-2.27v-11.18Z"/>
      <path class="cls-1" d="M23.86,53.89h3.42c2.46,0,3.98,1.26,3.98,3.34,0,1.34-.65,2.35-1.79,2.89l3.51,4.95h-2.72l-2.97-4.52h-1.17v4.52h-2.27v-11.18ZM26.13,55.83v2.8h1.28c.96,0,1.52-.51,1.52-1.42,0-.85-.56-1.37-1.52-1.37h-1.28Z"/>
      <path class="cls-1" d="M37.69,53.89h2.97l4.23,11.18h-2.41l-1.07-2.91h-4.47l-1.07,2.91h-2.41l4.23-11.18ZM40.71,60.24l-1.53-4.2-1.53,4.2h3.07Z"/>
      <path class="cls-1" d="M46.62,53.89h2.91l5,8v-8h2.27v11.18h-2.91l-5-8.03v8.03h-2.27v-11.18Z"/>
      <path class="cls-1" d="M67.83,61.74l1.79,1.37c-.86,1.18-2.2,2.01-3.83,2.22l-1.39,2.32h-2.01l1.41-2.35c-2.91-.51-4.82-2.97-4.82-5.81,0-3.19,2.41-5.91,5.94-5.91,2.03,0,3.69.91,4.71,2.27l-1.79,1.39c-.64-.91-1.65-1.53-2.92-1.53-2.11,0-3.61,1.65-3.61,3.79s1.5,3.79,3.61,3.79c1.28,0,2.28-.62,2.92-1.53Z"/>
      <path class="cls-1" d="M74.34,53.89h2.97l4.23,11.18h-2.41l-1.07-2.91h-4.47l-1.07,2.91h-2.41l4.23-11.18ZM77.35,60.24l-1.53-4.2-1.53,4.2h3.07Z"/>
      <path class="cls-1" d="M83.26,53.89h2.27v11.18h-2.27v-11.18Z"/>
      <path class="cls-1" d="M89.3,62.01c.67.86,1.57,1.37,2.48,1.37s1.44-.48,1.44-1.29c0-2-5.11-1.55-5.11-5.27,0-1.77,1.45-3.24,3.58-3.24,1.68,0,2.97.75,3.91,1.88l-1.66,1.49c-.65-.85-1.39-1.39-2.24-1.39-.78,0-1.29.51-1.29,1.17,0,2,5.11,1.53,5.11,5.32-.03,2.08-1.66,3.35-3.71,3.35-1.88,0-3.16-.69-4.15-1.87l1.65-1.52Z"/>
      <path class="cls-1" d="M97.9,53.89h6.52v1.93h-4.25v2.59h3.61v1.93h-3.61v2.8h4.25v1.93h-6.52v-11.18Z"/>
    </g>
    <g>
      <path class="cls-1" d="M51.73,95.95c.3,0,.57.23.43.81l-1.41.33c.25-.66.66-1.14.98-1.14M52.51,98.22h-.28c-.35.42-.73.75-1.11.75s-.58-.23-.58-.75c0-.21.02-.43.07-.62l2.27-.75c.44-1.05-.09-1.51-.71-1.51-1.07,0-2.3,1.8-2.3,3.37,0,.71.34,1.09.86,1.09.61,0,1.25-.6,1.78-1.58M52.06,94.92l1.6-1.49v-.17h-.86l-.98,1.66h.25ZM47.15,95.97h.75l-1.2,3.27c-.11.28.04.56.33.56.68,0,1.78-.67,2.16-1.59h-.21c-.3.32-.89.75-1.39.84l1.1-3.07h1.12l.14-.47h-1.09l.42-1.18h-.43l-.78,1.18-.93.13v.34ZM46.14,95.82c.09-.3-.11-.48-.27-.48-.66,0-1.43.59-1.75,1.42h.21c.21-.3.57-.64.91-.7l-1.25,3.26c-.11.3.11.48.27.48.62,0,1.35-.6,1.66-1.42h-.21c-.21.3-.57.64-.91.7l1.34-3.26ZM46.37,94.18c.3,0,.54-.24.54-.54s-.25-.54-.54-.54-.54.25-.54.54.24.54.54.54M39.15,99.19c-.16.37,0,.61.37.61.22,0,.32-.06.41-.3l.87-2.3c.4-.49,1.23-1.02,1.56-1.02.24,0,.2.2.05.49l-1.34,2.57c-.13.25.04.56.33.56.66,0,1.43-.59,1.75-1.42h-.21c-.21.3-.57.64-.91.7l1.15-2.32c.15-.3.22-.57.22-.8,0-.38-.21-.62-.61-.62-.57,0-1.14.64-1.82,1.43v-.61c0-.43-.14-.82-.53-.82-.25,0-.48.21-.71.52v.08c.43-.02.61.61.31,1.29l-.89,1.97ZM39.13,96.34c.16-.53.07-1-.34-1-.48,0-.61.37-1.1,1.43v-.61c0-.43-.14-.82-.53-.82-.46,0-.88.71-1.2,1.42h.21c.22-.32.43-.51.59-.51.2,0,.3.3,0,.98l-.89,1.97c-.16.37,0,.61.37.61.22,0,.32-.06.41-.3l.87-2.3c.25-.3.47-.57.75-.86h.85ZM34.1,95.95c.3,0,.57.23.43.81l-1.41.33c.25-.66.66-1.14.98-1.14M34.87,98.22h-.28c-.35.42-.73.75-1.11.75s-.58-.23-.58-.75c0-.21.02-.43.07-.62l2.27-.75c.44-1.05-.09-1.51-.71-1.51-1.07,0-2.3,1.8-2.3,3.37,0,.71.34,1.09.86,1.09.61,0,1.25-.6,1.78-1.58M29.52,95.97h.75l-1.2,3.27c-.11.28.04.56.33.56.68,0,1.78-.67,2.16-1.59h-.21c-.3.32-.89.75-1.39.84l1.1-3.07h1.12l.14-.47h-1.09l.42-1.18h-.43l-.78,1.18-.93.13v.34ZM25.38,98.52c0-1.01,1.12-2.38,1.75-2.38.14,0,.27.02.39.05l-.66,1.75c-.38.46-.96,1.02-1.23,1.02-.16,0-.25-.13-.25-.43M28.83,95.15l-.34-.02-.39.38h-.08c-1.87,0-3.48,2.1-3.48,3.62,0,.43.26.67.67.67.48,0,.96-.69,1.49-1.43l-.02.26c-.07.75.16,1.16.56,1.16.46,0,.88-.71,1.2-1.42h-.21c-.22.32-.43.51-.59.51-.17,0-.3-.31,0-.98l1.21-2.76ZM24.85,96.34c.16-.53.07-1-.34-1-.48,0-.61.37-1.1,1.43v-.61c0-.43-.14-.82-.53-.82-.46,0-.88.71-1.2,1.42h.21c.22-.32.43-.51.59-.51.2,0,.3.3,0,.98l-.89,1.97c-.16.37,0,.61.37.61.22,0,.32-.06.41-.3l.87-2.3c.25-.3.47-.57.75-.86h.85ZM18.57,99.64l.08-.25c-1.09-.2-1.23-.2-.8-1.39l.44-1.22h1.21c.54,0,.55.22.47.81h.31l.72-1.98h-.31c-.27.47-.48.81-1.07.81h-1.19l.63-1.73c.2-.55.31-.66,1.05-.66h.52c.76,0,.85.2.85.98h.3l.25-1.34h-4.53l-.08.25c.88.18.96.26.55,1.39l-.98,2.69c-.41,1.12-.58,1.21-1.59,1.39l-.07.25h3.23Z"/>
      <path class="cls-1" d="M40.75,85.7c.3,0,.57.23.43.81l-1.41.33c.25-.66.66-1.14.98-1.14M41.53,87.97h-.28c-.35.42-.73.75-1.11.75s-.58-.23-.58-.75c0-.21.02-.43.07-.62l2.27-.75c.44-1.05-.09-1.51-.71-1.51-1.07,0-2.3,1.8-2.3,3.37,0,.71.34,1.09.86,1.09.61,0,1.25-.6,1.78-1.58M41.08,84.68l1.6-1.49v-.17h-.86l-.98,1.66h.25ZM36.18,85.73h.75l-1.2,3.27c-.11.28.04.56.33.56.68,0,1.78-.67,2.16-1.59h-.21c-.3.32-.89.75-1.39.84l1.1-3.07h1.12l.14-.47h-1.09l.42-1.18h-.43l-.78,1.18-.93.13v.34ZM35.16,85.57c.09-.3-.11-.48-.27-.48-.66,0-1.43.59-1.75,1.42h.21c.21-.3.57-.64.91-.7l-1.25,3.26c-.11.3.11.48.27.48.62,0,1.35-.6,1.66-1.42h-.21c-.21.3-.57.64-.91.7l1.34-3.26ZM35.39,83.93c.3,0,.54-.24.54-.54s-.25-.54-.54-.54-.54.25-.54.54.24.54.54.54M31.03,88.83l2.29-5.99-.07-.09-1.43.16v.17l.28.21c.25.2.17.39-.06.99l-1.79,4.71c-.13.25.04.56.33.56.66,0,1.35-.59,1.66-1.42h-.21c-.21.3-.66.64-.99.7M26.69,88.27c0-1.01,1.12-2.38,1.75-2.38.14,0,.27.02.39.05l-.66,1.75c-.38.46-.96,1.02-1.23,1.02-.16,0-.25-.13-.25-.43M30.14,84.91l-.34-.02-.39.38h-.08c-1.87,0-3.48,2.1-3.48,3.62,0,.43.26.67.67.67.48,0,.96-.69,1.49-1.43l-.02.26c-.07.75.16,1.16.56,1.16.46,0,.88-.71,1.2-1.42h-.21c-.22.32-.43.51-.59.51-.17,0-.3-.31,0-.98l1.21-2.76ZM21.79,90.35c0-.43.42-.7,1.02-.94.2.1.49.2.89.34.62.2.86.29.86.48,0,.4-.68.7-1.61.7-.78,0-1.16-.16-1.16-.57M23.49,87.7c-.27,0-.38-.23-.38-.49,0-.73.39-1.8,1.01-1.8.27,0,.38.23.38.49,0,.73-.39,1.8-1.01,1.8M25.27,89.95c0-.52-.47-.71-1.23-.94-.66-.2-.95-.25-.95-.47,0-.17.14-.38.42-.52,1.07-.06,1.77-1.02,1.77-1.84,0-.17-.03-.32-.09-.45h.91l.14-.47h-1.44c-.17-.11-.38-.16-.58-.16-1.14,0-1.88,1-1.88,1.81,0,.61.39,1,.87,1.09-.53.24-.83.52-.83.84,0,.19.07.32.22.44-1.23.36-1.71.77-1.71,1.35s.75.8,1.63.8c1.5,0,2.75-.81,2.75-1.49M19.54,86.44c.54,0,.55.22.47.81h.31l.72-1.98h-.31c-.27.47-.48.81-1.07.81h-1.19l.6-1.65c.2-.55.31-.66,1.05-.66h.52c.76,0,.85.2.85.97h.3l.25-1.34h-4.53l-.08.25c.88.18.96.26.55,1.39l-.98,2.69c-.41,1.12-.58,1.21-1.59,1.39l-.07.25h5.03l.9-1.43h-.34c-.57.54-1.3,1.06-2.3,1.06-1.34,0-1.21-.06-.77-1.28l.48-1.3h1.21ZM20.19,83l1.6-1.1v-.17h-.97l-.89,1.27h.25Z"/>
      <path class="cls-1" d="M40.22,75.45c.3,0,.57.23.43.81l-1.41.33c.25-.66.66-1.14.98-1.14M41,77.72h-.28c-.35.42-.73.75-1.11.75s-.58-.23-.58-.75c0-.21.02-.43.07-.62l2.27-.75c.44-1.05-.09-1.51-.71-1.51-1.07,0-2.3,1.8-2.3,3.37,0,.71.34,1.09.86,1.09.61,0,1.25-.6,1.78-1.58M40.55,74.43l1.6-1.49v-.17h-.86l-.98,1.66h.25ZM35.85,75.48h.6l-1.2,3.27c-.11.28.04.56.33.56.68,0,1.78-.67,2.16-1.59h-.21c-.3.32-.89.75-1.39.84l1.1-3.07h1.12l.14-.47h-1.09l.42-1.18h-.43l-.78,1.18-.77.13v.34ZM35.26,75.85c.16-.53.07-1-.34-1-.48,0-.61.37-1.1,1.43v-.61c0-.43-.14-.82-.53-.82-.46,0-.88.71-1.2,1.42h.21c.22-.32.43-.51.59-.51.2,0,.3.3,0,.98l-.89,1.97c-.16.37,0,.61.37.61.22,0,.32-.06.41-.3l.87-2.3c.25-.3.47-.57.75-.86h.85ZM30.23,75.45c.3,0,.57.23.43.81l-1.41.33c.25-.66.66-1.14.98-1.14M31.01,77.72h-.28c-.35.42-.73.75-1.11.75s-.58-.23-.58-.75c0-.21.02-.43.07-.62l2.27-.75c.44-1.05-.09-1.51-.71-1.51-1.07,0-2.3,1.8-2.3,3.37,0,.71.34,1.09.86,1.09.61,0,1.25-.6,1.78-1.58M25.44,78.64c-.22,0-.54-.2-.54-.39,0-.06.1-.31.22-.63l.37-.98c.39-.47.99-.97,1.33-.97.2,0,.36.13.36.43,0,.89-.84,2.52-1.74,2.52M28.02,75.76c0-.66-.25-.91-.7-.91-.57,0-1.11.61-1.66,1.34l1.37-3.6-.07-.09-1.43.16v.17l.28.21c.25.2.17.4-.06.99l-1.48,3.8c-.11.28-.24.61-.24.7,0,.39.53.76,1.02.76,1.11,0,2.98-2.01,2.98-3.55M23.56,75.32c.09-.3-.11-.48-.27-.48-.66,0-1.43.59-1.75,1.42h.21c.21-.3.57-.64.91-.7l-1.25,3.26c-.11.3.11.48.27.48.62,0,1.35-.6,1.66-1.42h-.21c-.21.3-.57.64-.91.7l1.34-3.26ZM23.79,73.68c.3,0,.54-.24.54-.54s-.25-.54-.54-.54-.54.25-.54.54.24.54.54.54M20.49,73.16h-2.98l-.08.25c.88.18.96.26.55,1.39l-.97,2.69c-.41,1.12-.58,1.21-1.59,1.39l-.07.25h4.54l.98-1.75h-.34c-.56.61-1.21,1.39-2.22,1.39-.76,0-.85-.13-.44-1.28l.97-2.69c.4-1.12.58-1.21,1.59-1.39l.07-.25Z"/>
    </g>
    <g>
      <path class="cls-2" d="M32.19,28.6c.16-.16.32-.33.48-.5h0c.3-.34.59-.66.94-.96.11-.09.21-.18.31-.24.03-.03.03-.08.06-.11-.14.06-.22.17-.36.22-.03,0-.06-.03-.03-.06.1-.07.2-.15.3-.22,0,0-.01,0-.02,0-.03,0-.03-.03-.03-.06-.36-.06-.65.2-.9.42-.06.03-.11-.03-.14-.03-.42.14-.73.51-1.15.67v-.06c-.17.06-.33.16-.5.2-.25.06-.48.03-.7.03-.34.03-.68.11-1.02.18,0,0-.02,0-.03,0-.18.05-.35.12-.52.21,0,0-.01,0-.02.01-.01.02-.03.03-.04.05-.06.07-.11.13-.19.17-.17.09-.31.24-.47.36-.01,0-.03.01-.04.01-.15.14-.3.29-.45.43-.01.01-.05.02-.09.01,0,0,0,0,0,0,0,0,.01-.02.02-.03.02-.04.05-.08.07-.12.03-.04.05-.09.08-.13.04-.06.08-.12.12-.17.01-.01,0-.03,0-.04,0,0-.02-.01-.04-.01.14-.14.31-.25.47-.35,0,0,0,0,0,0-.02,0-.05,0-.03-.03.02-.02.03-.05.05-.08,0,0,0-.02,0-.03,0,0-.01-.01-.02-.02-.05.03-.09.06-.13.09-.07.06-.12.18-.22.18,0,0-.03,0-.04,0-.01,0-.02,0-.03,0,0,0,0,0,0,0,0,0,0,0,0,0,0,0,0,0,0,0,0,0,0-.02.01-.02,0,0,0-.02.01-.02,0,0,0-.01.01-.02,0-.01.01-.02.02-.04,0,0,0-.02.01-.03.01-.02.02-.04.04-.06,0,0,.01-.02.02-.03,0-.02.02-.03.03-.05.01-.02,0-.04-.02-.05.05-.07.12-.12.19-.17h0c.11-.05.21-.12.32-.18.02-.01.03-.03.05-.04-.16.05-.3.13-.45.22,0,0-.04.02-.05.03,0,0-.03.01-.07-.03,0,0,0-.01,0-.02.03-.06.11-.08.17-.14.03,0,.06,0,.06.03.9-.7,2.13-.53,3.17-.9.08-.06.17-.11.25-.17.14-.06.25-.2.42-.28.22-.17.39-.36.48-.65,0-.03-.03-.06-.03-.06-.36.39-.79.7-1.23.93-.59.31-1.23.25-1.85.34.03-.06.08-.06.14-.06,0-.08.06-.11.11-.17h.08s.03-.06.06-.06c.06,0,.14-.03.11-.03-.08-.11-.25.08-.39,0,.06-.06.03-.14.08-.17h.11c0-.06.06-.11.06-.11.42-.25.81-.45,1.21-.67-.08,0-.14.08-.22.03.06,0,0-.08.06-.08.31-.08.56-.25.87-.36-.11,0-.2.08-.31,0,.06-.03.08-.08.17-.08v-.08s.03-.03.06-.03c-.03,0-.06-.03-.06-.03.03-.06.11-.03.17-.08-.03,0-.08,0-.08-.03.08-.11.22-.14.36-.17-.03-.06-.11,0-.11-.06,0-.03.03-.03.06-.03h-.06c-.06-.03-.03-.08-.03-.11.17-.2.17-.45.25-.67-.03,0-.06,0-.06-.03-.28.31-.73.42-1.15.53h-.14c-.14.06-.34.06-.48-.03-.11-.06-.17-.14-.28-.22-.22-.14-.45-.25-.7-.34-.7-.22-1.43-.34-2.16-.31.31-.17.65-.18.98-.28.48-.14.93-.31,1.43-.28-.08-.03-.2,0-.28,0-.39-.03-.79.08-1.21.17-.28.06-.53.17-.81.22-.17.06-.25.22-.45.2v-.08c.28-.34.62-.67,1.07-.7.5-.08.98,0,1.49.06.36.03.7.11,1.07.2.14,0,.17.22.28.25.17.06.34,0,.5.11,0-.06-.03-.11,0-.17.11-.11.25.03.36-.03.22-.14-.2-.39-.31-.59,0-.03.03-.06.03-.06.22.2.39.42.67.56.14.06.48.14.42-.03-.14-.31-.42-.56-.65-.84v-.11c-.06,0-.06-.03-.08-.06v-.11c-.11-.06-.08-.17-.14-.25-.08-.14-.03-.34-.08-.51s-.08-.31-.11-.48c-.08-.48-.2-.9-.25-1.35-.06-.53.31-.95.56-1.43.2-.34.42-.67.79-.9.08-.34.31-.62.53-.9.22-.27.6-.44.87-.56.39-.18.75-.28.75-.28H15.31v14.85h13.64c.53-.38,1.07-.57,1.81-.93.35-.17,1.16-.54,1.43-.82ZM27.87,26.59c-.06,0-.17.03-.14-.03.03-.14.22-.14.34-.2.06-.03.14-.08.2-.06.06.08.14.06.2.11-.17.17-.39.08-.59.17ZM23.58,25.97s-.03-.03-.03-.06c.36-.48.65-.93.9-1.43.36-.2.67-.48.95-.79.48-.51.98-.95,1.57-1.23.22-.08.5-.06.73.03-.08.11-.22.08-.34.17-.03,0-.06,0-.08-.03.03-.03.03-.06.03-.08-.28.31-.67.45-.9.81-.17.28-.28.65-.65.73-.11.03.03-.08-.03-.06-.87.53-1.49,1.18-2.16,1.94ZM25.91,24.12c-.03.06-.06.06-.08.11-.03.06-.06.08-.11.11-.03,0-.06,0-.06-.03.03-.11.11-.22.22-.25.03,0,.03.03.03.06ZM27.21,28.32s-.04.06-.07.08c.04,0,.06.02.04.04-.07.06-.13.12-.21.15,0,0-.02,0-.04,0-.03.03-.07.07-.1.1-.03.03-.19,0-.14-.03.07-.06.14-.13.21-.2.04-.04.08-.07.12-.11.02-.02.04-.04.06-.06.02-.02.17-.03.15.03ZM26.71,28.09s0,0,0,0c-.11.07-.21.15-.32.21-.12.07-.25.12-.37.18,0,0,0,0,0,0,0-.01-.03-.02-.05-.01-.11.06-.2.13-.28.22-.01.01-.03.03-.04.04,0,0,0,0,0,0,0,0,0,0,0,0-.01.01-.03.03-.04.04,0,0,0,0,0,0,0,0,0,0,0,0-.02.02-.04.04-.06.07-.01.02-.02.03-.04.04-.02.01-.07.01-.06-.02,0,0,0,0,0,0-.02,0-.03.02-.05.03-.02,0-.03.02-.04.02,0,0-.01,0-.02,0,0,0-.01,0-.02,0-.03.03-.07.06-.1.09-.06.05-.11.11-.16.17,0,0,0,0,0,0,0,0,0,0,0,0,0,0,0,0,0,.01,0,0,0,0,0,.01,0,0,0,0,0,0,0,0-.01.02-.02.03,0,0,0,0,0,0,0,0-.01,0-.02.01,0,0,0-.01-.01-.02,0,0,0,0,0-.01,0-.01-.02-.03-.02-.04,0,0,0,0,0,0,0,0,0,0,0-.01.03-.03.06-.07.09-.1,0,0,0,0,0,0,0-.01.02-.02.03-.04.02-.02.03-.04.05-.06,0,0,.01-.01.02-.02.03-.04.06-.08.09-.12,0,0,0,0,0,0,0,0,0-.01.01-.02.01-.02.03-.04.04-.06.01-.02.02-.04.03-.06,0,0,0,0,0,0,0,0,0,0,0,0,0,0,0,0,0-.01,0-.02.02-.04.03-.07,0,0,0,0,0,0,0,0,0-.01,0-.02,0-.01,0-.02,0-.03h0s0,0,0,0c0-.01,0-.03,0-.04,0,0,0-.01,0-.02.03-.05.07-.1.11-.15,0,0,0,0-.01,0-.04.03-.07.06-.1.09-.03.02-.09-.01-.05-.04.02-.02.04-.04.06-.06,0,0,0,0,0,0,.05-.05.09-.1.14-.14.03-.02.06-.04.09-.07,0,0,0,0,.01-.01.02-.03.04-.05.06-.07,0,0,0,0,0,0,.27-.26.72-.25,1.07-.41.14-.06.31.03.45,0,.08,0,.17,0,.25.06-.25.14-.48.29-.71.44ZM27.28,26.14s.08,0,.11-.06h-.22s-.03-.03-.03-.06c-.14.03-.31.08-.45.11-.2.06-.36.2-.59.25-.31.11-.56.36-.9.48-.03,0-.03-.03-.03-.06.03-.08.14-.11.2-.2,0-.03,0-.06-.03-.06.22-.31.53-.48.81-.73v-.08c.08-.11.22-.17.28-.31.03-.08.14-.2.28-.25-.03-.03-.08-.03-.08-.08-.11,0-.22.06-.34-.03.05-.05.11-.08.18-.1-.02,0-.05-.02-.06-.04-.03-.06.05-.12.14-.14.11-.03.25-.03.34-.11-.2-.03-.42.06-.62-.06.14-.36.36-.67.7-.84.03,0,.08,0,.08.03,0,.14-.08.25-.22.28.22.06.45.06.67.17-.03.06-.08.03-.11.03.14.08.31.03.45.14-.08.08-.17,0-.25,0,.87.25,1.8.45,2.52,1.01-.62.31-1.26.45-1.94.59-.08,0-.14,0-.22-.03,0,.03,0,.08-.03.08-.11,0-.2,0-.28.06-.11.06-.28.08-.36,0Z"/>
      <path class="cls-5" d="M56.14,15.5h-15.97s.03,0,.15.07c.13.07.3.16.4.21.21.11.41.24.53.45.06.08.14.25.08.36-.06.14-.08.36-.22.42-.17.08-.39.08-.59.06-.11,0-.22-.03-.34-.06.42.17.81.36,1.09.76.03.06.14.08.25.08.03,0,.03.06.03.08-.06.06-.11.08-.08.17h.08c.14-.06.11-.34.31-.25.14.08.2.28.11.42-.11.11-.22.2-.34.28-.03.06-.03.14,0,.2.08.11.11.22.14.34.08.2.11.42.2.62.11.42.22.84.2,1.26,0,.22-.11.42-.03.65.06.22.2.39.31.59.11.17.22.28.31.45.17.28.48.56.34.9-.08.2-.39.17-.59.28-.17.14-.03.36.06.5.14.25-.17.42-.36.5.06.08.17.06.2.11.03.14.17.22.08.36-.11.17-.45.25-.28.5.11.2.04.41-.03.62-.08.25-.31.36-.5.42-.17.06-.36.06-.53.03-.06-.03-.11-.06-.17-.06-.48-.06-.95-.2-1.43-.2-.14.03-.28.06-.39.11-.13.09-.24.19-.34.3,0,0,0,0,0,0-.02.02-.04.05-.06.07-.01.01-.02.03-.04.04,0,0-.02.02-.02.03-.08.1-.16.21-.22.32,0,0,0,.01-.01.02,0,.01-.01.03-.02.04-.09.17-.16.34-.21.51-.19.64-.11,1.19.03,1.33.04.04.93.31,1.55.59.29.13.49.23.66.34h15.68v-14.85Z"/>
      <path class="cls-3" d="M41.11,20.92c.11.03.28.03.28.08-.06.22-.39.28-.56.51h-.08c-.08.06-.06.2-.14.2-.08-.03-.17,0-.25.03.11.11.25.2.42.17.03,0,.08.06.08.11,0,0,.03,0,.06-.03.03,0,.06,0,.06.03v.11c-.08.11-.22.06-.34.08.22.06.45.06.65,0,.17-.06,0-.34.11-.48-.06,0,0-.08-.06-.08.06-.06.11-.14.17-.17.06,0,.14-.03.17-.08,0-.06-.11-.08-.08-.14.17-.11.31-.28.25-.45-.03-.08-.25-.08-.39-.14-.14-.06-.31,0-.48.03-.14,0-.28.08-.42.11-.2.06-.36.17-.53.28.2-.08.39-.11.62-.17.17,0,.31-.04.48,0Z"/>
    </g>
  </g>
</svg>